<?xml version="1.0" encoding="utf-8"?>
<!-- Generator: Adobe Illustrator 21.0.0, SVG Export Plug-In . SVG Version: 6.00 Build 0)  -->
<svg version="1.1" id="Layer_1" xmlns="http://www.w3.org/2000/svg" xmlns:xlink="http://www.w3.org/1999/xlink" x="0px" y="0px"
	 viewBox="0 0 500 500" style="enable-background:new 0 0 500 500;" xml:space="preserve">
<style type="text/css">
	.st0{fill:none;stroke:#000000;stroke-width:14;stroke-miterlimit:10;}
	.st1{stroke:#000000;stroke-linecap:round;stroke-miterlimit:10;}
	.st2{stroke:#231F20;stroke-linecap:round;stroke-miterlimit:10;}
	.st3{stroke:#000000;stroke-width:0.5;stroke-miterlimit:10;}
</style>
<g>
	<path d="M456.5,385.5c-5.2-1.6-10.3-3-15.4-4.2c-5.1-1.2-10.3-2.2-15.4-3.1c-10.3-1.6-20.6-2.7-30.9-3c-20.6-0.8-41.1,0.5-61.4,3.5
		c-20.3,3.1-40.3,7.8-59.7,14.7c-19.5,6.8-38.2,15.8-56,28c6-9,13.8-16.9,22.3-23.8c4.3-3.5,8.8-6.6,13.4-9.6
		c2.3-1.5,4.7-2.9,7.1-4.3c2.4-1.4,4.8-2.7,7.3-3.9c19.7-10,41.1-16.5,62.8-19.7c21.8-3.2,44.1-3.3,65.9,0.5
		c10.9,1.9,21.6,4.8,31.8,8.9c5.1,2.1,10.1,4.4,14.8,7.1C447.8,379,452.3,382,456.5,385.5z"/>
</g>
<g>
	<path d="M412.2,410c-5.4-4.6-12.3-11.6-18-21.4c-4.1-6.9-6.5-13.5-8-18.8c7.5,0.6,15.1,1.2,22.6,1.9c-0.7,4.1-1.2,8.9-1.2,14.2
		C407.7,395.9,409.9,404.1,412.2,410z"/>
	<path d="M412.2,410c-3.6-2-7-4.4-10.2-7.2c-3.1-2.8-6-5.8-8.6-9.2c-2.6-3.3-4.9-6.9-6.8-10.7c-1-1.9-1.8-3.8-2.6-5.8
		c-0.8-2-1.5-4-2.1-6.1L380,365l6.5,0.5l5.7,0.4c1.9,0.1,3.8,0.3,5.6,0.5c1.9,0.2,3.8,0.4,5.6,0.6c1.9,0.2,3.8,0.4,5.6,0.6l4.7,0.6
		l-0.9,4.3c-0.3,1.5-0.6,3-0.9,4.5c-0.3,1.5-0.5,3-0.7,4.6c-0.4,3.1-0.5,6.2-0.6,9.3c0,3.1,0.1,6.3,0.3,9.5
		C411.3,403.6,411.7,406.8,412.2,410z M412.2,410c-3.6-5.6-5.9-12-7.1-18.7c-0.6-3.3-1-6.7-1-10.1c0-1.7,0-3.4,0.1-5.1
		c0.1-1.7,0.3-3.4,0.5-5.1l3.8,4.9c-1.9-0.1-3.8-0.2-5.7-0.3c-1.9-0.1-3.8-0.2-5.7-0.4c-1.9-0.1-3.8-0.3-5.7-0.4l-5.6-0.5l4.6-5.6
		c0.5,1.9,1,3.7,1.6,5.5c0.6,1.8,1.2,3.6,2,5.4c1.4,3.6,3.1,7.1,4.9,10.5c1.8,3.4,3.9,6.8,6.1,10.1
		C407.2,403.5,409.6,406.8,412.2,410z"/>
</g>
<path class="st0" d="M112,277.4c2.2-49.5,200.9-47.5,227.8-36.4c1.1,0.5,3,1.4,4.5,3.5c10.6,15.3-19.3,70.8-50.9,92.3
	C229.3,380.5,110.3,316.2,112,277.4z"/>
<ellipse class="st1" cx="200.8" cy="283.3" rx="15.8" ry="28.8"/>
<ellipse transform="matrix(0.9941 -0.1087 0.1087 0.9941 -28.5227 31.4034)" class="st2" cx="273.7" cy="277.2" rx="10.9" ry="23.1"/>
<path class="st3" d="M206.6,197.5c-44.7,46.9-72.4,67.9-83.3,62.8c-1.9-0.9-3.3-2.6-4.2-5.1"/>
<path class="st3" d="M361,193c-5.4,62.9-11.9,93-19.5,90.4c-1.3-0.5-2.7-1.9-4.1-4.4"/>
<g>
	<path d="M35.1,134.4c16.5,1,32.7,3,49,5.3c16.2,2.3,32.4,5,48.4,8.1c16.1,3,32.1,6.4,48,10.2c15.9,3.8,31.8,7.9,47.5,13
		c-16.5-1-32.7-3-49-5.3c-16.2-2.3-32.4-5-48.4-8.1c-16.1-3-32.1-6.4-48-10.2C66.6,143.6,50.8,139.5,35.1,134.4z"/>
</g>
<g>
	<path d="M35,134.5c1.8,4.5,3.8,8.8,6,13c2.2,4.2,4.7,8.1,7.4,11.8c5.5,7.4,12,13.6,19.5,18.3c3.7,2.4,7.6,4.5,11.7,6.3
		c4.1,1.7,8.3,3.3,12.6,4.4l1.6,0.5l1.6,0.4l3.3,0.8c2.2,0.4,4.4,0.9,6.6,1.2c4.4,0.8,9,1.2,13.5,1.4c2.3,0.1,4.5,0.3,6.8,0.2l3.4,0
		l3.4-0.1c2.3,0,4.6-0.2,6.9-0.3c2.3-0.2,4.6-0.4,6.9-0.6c9.2-0.9,18.3-2.4,27.4-4.4c9.1-2,18.2-4.4,27.2-7.3c9-2.8,18-6.1,27.1-9.4
		c-15.3,11.9-32.8,20.9-51.4,27.2c-9.3,3.1-18.9,5.5-28.7,7c-2.5,0.4-4.9,0.6-7.4,0.9c-2.5,0.2-5,0.5-7.4,0.6l-3.7,0.1l-3.8,0
		c-2.5,0-5-0.1-7.5-0.2c-10-0.7-20.1-2.3-29.7-5.6c-4.8-1.6-9.6-3.6-14.1-6c-1.1-0.6-2.3-1.2-3.4-1.9l-3.3-2
		c-1.1-0.7-2.1-1.5-3.1-2.2c-0.5-0.4-1-0.7-1.6-1.1l-1.5-1.2c-8-6.4-14.5-14.7-18.9-23.7C38.1,153.8,35.7,144.1,35,134.5z"/>
</g>
<ellipse transform="matrix(2.629384e-02 -0.9997 0.9997 2.629384e-02 -59.9089 289.6855)" class="st1" cx="118.7" cy="175.6" rx="28.8" ry="9.7"/>
<g>
	<path d="M476.8,107c-15.3,6.3-30.8,11.6-46.4,16.6c-15.6,5-31.3,9.6-47.1,13.8c-15.8,4.3-31.7,8.2-47.7,11.7
		c-16,3.5-32.1,6.7-48.4,9c15.3-6.3,30.8-11.6,46.4-16.6c15.6-5,31.3-9.6,47.1-13.8c15.8-4.3,31.7-8.2,47.7-11.7
		C444.4,112.5,460.4,109.2,476.8,107z"/>
</g>
<g>
	<path d="M476.9,107c0.1,9.7-1.6,19.5-5.3,28.8c-3.7,9.3-9.6,18-17.1,25l-1.4,1.3c-0.5,0.4-1,0.8-1.5,1.3c-1,0.8-1.9,1.7-3,2.5
		l-3.1,2.3c-1,0.8-2.1,1.4-3.2,2.1c-4.3,2.8-8.9,5.1-13.6,7.1c-9.4,4-19.3,6.4-29.2,7.8c-2.5,0.3-5,0.6-7.5,0.8l-3.7,0.3l-3.7,0.1
		c-2.5,0.1-5,0-7.5,0c-2.5-0.1-5-0.2-7.4-0.3c-9.9-0.8-19.7-2.3-29.2-4.8c-19-4.8-37.2-12.6-53.3-23.2c9.3,2.6,18.5,5.2,27.7,7.3
		c9.2,2.1,18.5,3.9,27.7,5.2c9.2,1.3,18.5,2.1,27.7,2.3c2.3,0,4.6,0.1,6.9,0c2.3-0.1,4.6-0.1,6.9-0.2l3.4-0.2l3.4-0.3
		c2.3-0.2,4.5-0.5,6.8-0.8c4.5-0.6,9-1.4,13.3-2.5c2.2-0.5,4.4-1.1,6.5-1.7l3.2-1l1.6-0.5l1.6-0.6c4.2-1.5,8.3-3.3,12.2-5.4
		c3.9-2.1,7.7-4.5,11.2-7.1c7.1-5.3,13.2-12,18.1-19.8c2.4-3.9,4.6-8,6.5-12.3C473.8,116.1,475.4,111.6,476.9,107z"/>
</g>
<ellipse transform="matrix(0.9947 -0.1025 0.1025 0.9947 -13.789 40.5325)" class="st1" cx="387.6" cy="154.5" rx="8.5" ry="26"/>
<g>
	<path d="M30.6,110.9c1.8,2.8,3.7,5.4,5.8,7.9c2.1,2.5,4.3,4.7,6.7,6.9c1.2,1.1,2.5,2,3.8,2.9c1.3,0.9,2.5,1.9,3.6,2.9
		c1.1,1.1,2.3,2.2,3.4,3.4c1.1,1.2,2.2,2.4,3.3,4l-0.3,0.5c-3.7,0-7-1.3-10-3.1c-1.5-0.9-2.8-2-4-3.3c-1.2-1.3-2.2-2.7-3.3-4
		c-1.1-1.3-2.1-2.7-3.1-4.1c-0.9-1.4-1.8-2.9-2.6-4.4c-1.6-3-2.9-6.1-3.8-9.3L30.6,110.9z"/>
</g>
<g>
	<path d="M48.6,111.5c0.7,2.4,1.5,4.8,2.5,7.1c0.5,1.1,1,2.3,1.5,3.4c0.5,1.1,1.1,2.2,1.7,3.2c0.6,1.1,1.3,2,2,3
		c0.7,1,1.3,2,1.8,3.1c0.5,1.1,0.9,2.2,1.3,3.5c0.4,1.2,0.7,2.5,0.9,4l-0.4,0.4c-1.5-0.4-2.7-1.1-3.9-1.9c-1.1-0.8-2.1-1.8-3-2.8
		c-0.9-1-1.5-2.2-2-3.5c-0.4-1.3-0.8-2.6-1.2-3.9c-0.4-1.3-0.7-2.6-1-3.8c-0.3-1.3-0.5-2.6-0.6-3.9c-0.3-2.6-0.4-5.2-0.2-7.8
		L48.6,111.5z"/>
</g>
<g>
	<path d="M59.3,111c0.1,2.4,0.3,4.8,0.6,7.1c0.2,1.2,0.4,2.3,0.6,3.4c0.2,1.1,0.5,2.3,0.8,3.4c0.3,1.1,0.7,2.2,1.2,3.2
		c0.4,1,0.7,2.1,0.9,3.2c0.2,1.1,0.3,2.3,0.3,3.5c0,1.2,0,2.5-0.2,3.9l-0.5,0.3c-1.3-0.7-2.3-1.6-3.2-2.6c-0.9-1-1.6-2.1-2.1-3.3
		c-0.6-1.2-0.9-2.4-1-3.7c-0.1-1.3-0.1-2.6-0.1-3.9c0-1.3,0-2.5,0-3.8c0.1-1.3,0.2-2.5,0.4-3.7c0.4-2.5,1-4.9,1.8-7.2L59.3,111z"/>
</g>
<g>
	<path d="M479.3,83.1c-1,3.4-2.4,6.6-4,9.8c-0.8,1.6-1.8,3.1-2.7,4.6c-1,1.5-2.1,2.9-3.2,4.3c-1.1,1.4-2.3,2.8-3.5,4.2
		c-1.2,1.4-2.6,2.5-4.2,3.5c-3.1,1.9-6.6,3.3-10.4,3.4l-0.3-0.5c1.1-1.6,2.3-2.9,3.5-4.1c1.2-1.2,2.4-2.4,3.6-3.6
		c1.2-1.1,2.5-2.2,3.8-3.1c1.4-1,2.7-1.9,3.9-3.1c2.5-2.3,4.8-4.7,6.9-7.3c2.2-2.6,4.1-5.4,6-8.4L479.3,83.1z"/>
</g>
<g>
	<path d="M458.5,87.3c0.4,2.7,0.4,5.5,0.3,8.2c-0.1,1.4-0.2,2.8-0.4,4.2c-0.2,1.4-0.5,2.8-0.8,4.1c-0.3,1.4-0.6,2.8-1,4.1
		c-0.4,1.4-1,2.7-1.8,3.8c-0.8,1.2-1.8,2.3-2.9,3.2c-1.1,0.9-2.3,1.8-3.8,2.3l-0.5-0.4c0.3-3.1,1.1-5.6,1.9-8c0.4-1.2,1-2.3,1.7-3.4
		c0.7-1.1,1.4-2.2,1.9-3.3c0.5-1.2,1-2.4,1.5-3.6c0.5-1.2,0.9-2.4,1.3-3.7c0.8-2.5,1.5-5.1,2-7.7L458.5,87.3z"/>
</g>
<g>
	<path d="M450.1,87.2c0.9,2.5,1.4,5,1.8,7.6c0.2,1.3,0.3,2.6,0.4,4c0,1.3,0,2.7,0,4c-0.1,1.3-0.1,2.7-0.2,4.1
		c-0.1,1.4-0.4,2.7-1,3.9c-0.6,1.2-1.3,2.4-2.2,3.5c-0.9,1.1-1.9,2.1-3.3,2.8l-0.5-0.3c-0.2-1.5-0.2-2.8-0.1-4.1
		c0.1-1.3,0.2-2.5,0.4-3.7c0.2-1.2,0.5-2.3,1-3.5c0.5-1.1,0.9-2.3,1.2-3.4c0.3-1.2,0.6-2.4,0.8-3.6c0.2-1.2,0.4-2.4,0.6-3.7
		c0.3-2.5,0.5-5,0.6-7.6L450.1,87.2z"/>
</g>
<g>
	<path d="M494.3,73.1c-1.3,4.1-3.1,8.1-5.1,12.1c-1,1.9-2.2,3.8-3.4,5.7c-1.2,1.8-2.5,3.6-3.9,5.4c-1.4,1.7-2.8,3.5-4.2,5.2
		c-1.5,1.7-3.2,3.2-5,4.4c-1.9,1.3-3.8,2.4-5.9,3.3c-2.1,0.9-4.2,1.6-6.5,1.9l-0.3-0.5c1.4-1.8,3-3.3,4.5-4.9c1.5-1.5,3-3,4.5-4.4
		c1.5-1.4,3.1-2.8,4.7-4.1c1.6-1.3,3.3-2.6,4.7-4.1c1.5-1.5,2.9-3,4.3-4.6c1.4-1.6,2.7-3.2,4-4.9c2.6-3.3,4.9-6.9,7.1-10.7
		L494.3,73.1z"/>
</g>
<g>
	<path d="M14.4,99.9c2.2,3.7,4.5,7.3,7.1,10.7c1.3,1.7,2.6,3.3,4,4.9c1.4,1.6,2.8,3.1,4.3,4.6c1.5,1.5,3.1,2.8,4.7,4.1
		c1.6,1.3,3.2,2.6,4.7,4.1c1.5,1.4,3,2.9,4.5,4.4c1.5,1.5,3,3.1,4.5,4.9l-0.3,0.5c-2.3-0.3-4.5-1-6.5-1.9c-2.1-0.9-4-2-5.9-3.3
		c-1.9-1.3-3.5-2.8-5-4.4c-1.5-1.7-2.8-3.5-4.2-5.2c-1.4-1.7-2.7-3.5-3.9-5.4c-1.2-1.9-2.3-3.8-3.4-5.7c-2-3.9-3.8-7.9-5.1-12.1
		L14.4,99.9z"/>
</g>
<g>
	<path d="M67.6,118.5c-0.2,2-0.3,4-0.2,6c0,1,0.1,1.9,0.2,2.9c0.1,1,0.2,1.9,0.3,2.8c0.1,0.9,0.4,1.9,0.7,2.8
		c0.3,0.9,0.4,1.8,0.4,2.7c0,0.9-0.1,1.9-0.2,2.9c-0.2,1-0.4,2.1-0.8,3.3l-0.6,0.2c-2.3-1.3-3.5-3.3-4.3-5.4c-0.4-1-0.5-2.1-0.4-3.2
		c0.1-1.1,0.3-2.2,0.4-3.3c0.1-1.1,0.3-2.1,0.5-3.2c0.2-1.1,0.5-2.1,0.8-3.1c0.7-2,1.5-4,2.6-5.7L67.6,118.5z"/>
</g>
<g>
	<path d="M6.4,96.9c2.2,3.7,4.5,7.3,7.1,10.7c1.3,1.7,2.6,3.3,4,4.9c1.4,1.6,2.8,3.1,4.3,4.6c1.5,1.5,3.1,2.8,4.7,4.1
		c1.6,1.3,3.2,2.6,4.7,4.1c1.5,1.4,3,2.9,4.5,4.4c1.5,1.5,3,3.1,4.5,4.9l-0.3,0.5c-2.3-0.3-4.5-1-6.5-1.9c-2.1-0.9-4-2-5.9-3.3
		c-1.9-1.3-3.5-2.8-5-4.4c-1.5-1.7-2.8-3.5-4.2-5.2c-1.4-1.7-2.7-3.5-3.9-5.4c-1.2-1.9-2.3-3.8-3.4-5.7c-2-3.9-3.8-7.9-5.1-12.1
		L6.4,96.9z"/>
</g>
</svg>
