<?xml version="1.0" encoding="utf-8"?>
<!-- Generator: Adobe Illustrator 21.0.0, SVG Export Plug-In . SVG Version: 6.00 Build 0)  -->
<svg version="1.1" id="Layer_1" xmlns="http://www.w3.org/2000/svg" xmlns:xlink="http://www.w3.org/1999/xlink" x="0px" y="0px"
	 viewBox="0 0 1024 768" style="enable-background:new 0 0 1024 768;" xml:space="preserve">
<style type="text/css">
	.st0{fill:#FFFFFF;}
	.st1{fill:none;stroke:#FFFFFF;stroke-width:14;stroke-miterlimit:10;}
	.st2{fill:#FFFFFF;stroke:#FFFFFF;stroke-linecap:round;stroke-miterlimit:10;}
	.st3{fill:#FFFFFF;stroke:#FFFFFF;stroke-width:0.5;stroke-miterlimit:10;}
</style>
<g>
	<path class="st0" d="M768.5,493.5c-5.2-1.6-10.3-3-15.4-4.2c-5.1-1.2-10.3-2.2-15.4-3.1c-10.3-1.6-20.6-2.7-30.9-3
		c-20.6-0.8-41.1,0.5-61.4,3.5c-20.3,3.1-40.3,7.8-59.7,14.7c-19.5,6.8-38.2,15.8-56,28c6-9,13.8-16.9,22.3-23.8
		c4.3-3.5,8.8-6.6,13.4-9.6c2.3-1.5,4.7-2.9,7.1-4.3c2.4-1.4,4.8-2.7,7.3-3.9c19.7-10,41.1-16.5,62.8-19.7
		c21.8-3.2,44.1-3.3,65.9,0.5c10.9,1.9,21.6,4.8,31.8,8.9c5.1,2.1,10.1,4.4,14.8,7.1C759.8,487,764.3,490,768.5,493.5z"/>
</g>
<g>
	<path class="st0" d="M724.2,518c-5.4-4.6-12.3-11.6-18-21.4c-4.1-6.9-6.5-13.5-8-18.8c7.5,0.6,15.1,1.2,22.6,1.9
		c-0.7,4.1-1.2,8.9-1.2,14.2C719.7,503.9,721.9,512.1,724.2,518z"/>
	<path class="st0" d="M724.2,518c-3.6-2-7-4.4-10.2-7.2c-3.1-2.8-6-5.8-8.6-9.2c-2.6-3.3-4.9-6.9-6.8-10.7c-1-1.9-1.8-3.8-2.6-5.8
		c-0.8-2-1.5-4-2.1-6.1L692,473l6.5,0.5l5.7,0.4c1.9,0.1,3.8,0.3,5.6,0.5c1.9,0.2,3.8,0.4,5.6,0.6c1.9,0.2,3.8,0.4,5.6,0.6l4.7,0.6
		l-0.9,4.3c-0.3,1.5-0.6,3-0.9,4.5c-0.3,1.5-0.5,3-0.7,4.6c-0.4,3.1-0.5,6.2-0.6,9.3c0,3.1,0.1,6.3,0.3,9.5
		C723.3,511.6,723.7,514.8,724.2,518z M724.2,518c-3.6-5.6-5.9-12-7.1-18.7c-0.6-3.3-1-6.7-1-10.1c0-1.7,0-3.4,0.1-5.1
		c0.1-1.7,0.3-3.4,0.5-5.1l3.8,4.9c-1.9-0.1-3.8-0.2-5.7-0.3c-1.9-0.1-3.8-0.2-5.7-0.4c-1.9-0.1-3.8-0.3-5.7-0.4l-5.6-0.5l4.6-5.6
		c0.5,1.9,1,3.7,1.6,5.5c0.6,1.8,1.2,3.6,2,5.4c1.4,3.6,3.1,7.1,4.9,10.5c1.8,3.4,3.9,6.8,6.1,10.1
		C719.2,511.5,721.6,514.8,724.2,518z"/>
</g>
<path class="st1" d="M424,385.4c2.2-49.5,200.9-47.5,227.8-36.4c1.1,0.5,3,1.4,4.5,3.5c10.6,15.3-19.3,70.8-50.9,92.3
	C541.3,488.5,422.3,424.2,424,385.4z"/>
<ellipse class="st2" cx="512.8" cy="391.3" rx="15.8" ry="28.8"/>
<ellipse transform="matrix(0.9941 -0.1087 0.1087 0.9941 -38.4161 65.9691)" class="st2" cx="585.7" cy="385.2" rx="10.9" ry="23.1"/>
<path class="st3" d="M518.6,305.5c-44.7,46.9-72.4,67.9-83.3,62.8c-1.9-0.9-3.3-2.6-4.2-5.1"/>
<path class="st3" d="M673,301c-5.4,62.9-11.9,93-19.5,90.4c-1.3-0.5-2.7-1.9-4.1-4.4"/>
<g>
	<path class="st0" d="M347.1,242.4c16.5,1,32.7,3,49,5.3c16.2,2.3,32.4,5,48.4,8.1c16.1,3,32.1,6.4,48,10.2
		c15.9,3.8,31.8,7.9,47.5,13c-16.5-1-32.7-3-49-5.3c-16.2-2.3-32.4-5-48.4-8.1c-16.1-3-32.1-6.4-48-10.2
		C378.6,251.6,362.8,247.5,347.1,242.4z"/>
</g>
<g>
	<path class="st0" d="M347,242.5c1.8,4.5,3.8,8.8,6,13c2.2,4.2,4.7,8.1,7.4,11.8c5.5,7.4,12,13.6,19.5,18.3
		c3.7,2.4,7.6,4.5,11.7,6.3c4.1,1.7,8.3,3.3,12.6,4.4l1.6,0.5l1.6,0.4l3.3,0.8c2.2,0.4,4.4,0.9,6.6,1.2c4.4,0.8,9,1.2,13.5,1.4
		c2.3,0.1,4.5,0.3,6.8,0.2l3.4,0l3.4-0.1c2.3,0,4.6-0.2,6.9-0.3c2.3-0.2,4.6-0.4,6.9-0.6c9.2-0.9,18.3-2.4,27.4-4.4
		c9.1-2,18.2-4.4,27.2-7.3c9-2.8,18-6.1,27.1-9.4c-15.3,11.9-32.8,20.9-51.4,27.2c-9.3,3.1-18.9,5.5-28.7,7
		c-2.5,0.4-4.9,0.6-7.4,0.9c-2.5,0.2-5,0.5-7.4,0.6l-3.7,0.1l-3.8,0c-2.5,0-5-0.1-7.5-0.2c-10-0.7-20.1-2.3-29.7-5.6
		c-4.8-1.6-9.6-3.6-14.1-6c-1.1-0.6-2.3-1.2-3.4-1.9l-3.3-2c-1.1-0.7-2.1-1.5-3.1-2.2c-0.5-0.4-1-0.7-1.6-1.1l-1.5-1.2
		c-8-6.4-14.5-14.7-18.9-23.7C350.1,261.8,347.7,252.1,347,242.5z"/>
</g>
<ellipse transform="matrix(2.629384e-02 -0.9997 0.9997 2.629384e-02 135.9247 706.7379)" class="st2" cx="430.7" cy="283.6" rx="28.8" ry="9.7"/>
<g>
	<path class="st0" d="M788.8,215c-15.3,6.3-30.8,11.6-46.4,16.6c-15.6,5-31.3,9.6-47.1,13.8c-15.8,4.3-31.7,8.2-47.7,11.7
		c-16,3.5-32.1,6.7-48.4,9c15.3-6.3,30.8-11.6,46.4-16.6c15.6-5,31.3-9.6,47.1-13.8c15.8-4.3,31.7-8.2,47.7-11.7
		C756.4,220.5,772.4,217.2,788.8,215z"/>
</g>
<g>
	<path class="st0" d="M788.9,215c0.1,9.7-1.6,19.5-5.3,28.8c-3.7,9.3-9.6,18-17.1,25l-1.4,1.3c-0.5,0.4-1,0.8-1.5,1.3
		c-1,0.8-1.9,1.7-3,2.5l-3.1,2.3c-1,0.8-2.1,1.4-3.2,2.1c-4.3,2.8-8.9,5.1-13.6,7.1c-9.4,4-19.3,6.4-29.2,7.8
		c-2.5,0.3-5,0.6-7.5,0.8l-3.7,0.3l-3.7,0.1c-2.5,0.1-5,0-7.5,0c-2.5-0.1-5-0.2-7.4-0.3c-9.9-0.8-19.7-2.3-29.2-4.8
		c-19-4.8-37.2-12.6-53.3-23.2c9.3,2.6,18.5,5.2,27.7,7.3c9.2,2.1,18.5,3.9,27.7,5.2c9.2,1.3,18.5,2.1,27.7,2.3c2.3,0,4.6,0.1,6.9,0
		c2.3-0.1,4.6-0.1,6.9-0.2l3.4-0.2l3.4-0.3c2.3-0.2,4.5-0.5,6.8-0.8c4.5-0.6,9-1.4,13.3-2.5c2.2-0.5,4.4-1.1,6.5-1.7l3.2-1l1.6-0.5
		l1.6-0.6c4.2-1.5,8.3-3.3,12.2-5.4c3.9-2.1,7.7-4.5,11.2-7.1c7.1-5.3,13.2-12,18.1-19.8c2.4-3.9,4.6-8,6.5-12.3
		C785.8,224.1,787.4,219.6,788.9,215z"/>
</g>
<ellipse transform="matrix(0.9947 -0.1025 0.1025 0.9947 -23.2143 73.0756)" class="st2" cx="699.6" cy="262.5" rx="8.5" ry="26"/>
<g>
	<path class="st0" d="M342.6,218.9c1.8,2.8,3.7,5.4,5.8,7.9c2.1,2.5,4.3,4.7,6.7,6.9c1.2,1.1,2.5,2,3.8,2.9c1.3,0.9,2.5,1.9,3.6,2.9
		c1.1,1.1,2.3,2.2,3.4,3.4c1.1,1.2,2.2,2.4,3.3,4l-0.3,0.5c-3.7,0-7-1.3-10-3.1c-1.5-0.9-2.8-2-4-3.3c-1.2-1.3-2.2-2.7-3.3-4
		c-1.1-1.3-2.1-2.7-3.1-4.1c-0.9-1.4-1.8-2.9-2.6-4.4c-1.6-3-2.9-6.1-3.8-9.3L342.6,218.9z"/>
</g>
<g>
	<path class="st0" d="M360.6,219.5c0.7,2.4,1.5,4.8,2.5,7.1c0.5,1.1,1,2.3,1.5,3.4c0.5,1.1,1.1,2.2,1.7,3.2c0.6,1.1,1.3,2,2,3
		c0.7,1,1.3,2,1.8,3.1c0.5,1.1,0.9,2.2,1.3,3.5c0.4,1.2,0.7,2.5,0.9,4l-0.4,0.4c-1.5-0.4-2.7-1.1-3.9-1.9c-1.1-0.8-2.1-1.8-3-2.8
		c-0.9-1-1.5-2.2-2-3.5c-0.4-1.3-0.8-2.6-1.2-3.9c-0.4-1.3-0.7-2.6-1-3.8c-0.3-1.3-0.5-2.6-0.6-3.9c-0.3-2.6-0.4-5.2-0.2-7.8
		L360.6,219.5z"/>
</g>
<g>
	<path class="st0" d="M371.3,219c0.1,2.4,0.3,4.8,0.6,7.1c0.2,1.2,0.4,2.3,0.6,3.4c0.2,1.1,0.5,2.3,0.8,3.4c0.3,1.1,0.7,2.2,1.2,3.2
		c0.4,1,0.7,2.1,0.9,3.2c0.2,1.1,0.3,2.3,0.3,3.5c0,1.2,0,2.5-0.2,3.9l-0.5,0.3c-1.3-0.7-2.3-1.6-3.2-2.6c-0.9-1-1.6-2.1-2.1-3.3
		c-0.6-1.2-0.9-2.4-1-3.7c-0.1-1.3-0.1-2.6-0.1-3.9c0-1.3,0-2.5,0-3.8c0.1-1.3,0.2-2.5,0.4-3.7c0.4-2.5,1-4.9,1.8-7.2L371.3,219z"/>
</g>
<g>
	<path class="st0" d="M791.3,191.1c-1,3.4-2.4,6.6-4,9.8c-0.8,1.6-1.8,3.1-2.7,4.6c-1,1.5-2.1,2.9-3.2,4.3c-1.1,1.4-2.3,2.8-3.5,4.2
		c-1.2,1.4-2.6,2.5-4.2,3.5c-3.1,1.9-6.6,3.3-10.4,3.4l-0.3-0.5c1.1-1.6,2.3-2.9,3.5-4.1c1.2-1.2,2.4-2.4,3.6-3.6
		c1.2-1.1,2.5-2.2,3.8-3.1c1.4-1,2.7-1.9,3.9-3.1c2.5-2.3,4.8-4.7,6.9-7.3c2.2-2.6,4.1-5.4,6-8.4L791.3,191.1z"/>
</g>
<g>
	<path class="st0" d="M770.5,195.3c0.4,2.7,0.4,5.5,0.3,8.2c-0.1,1.4-0.2,2.8-0.4,4.2c-0.2,1.4-0.5,2.8-0.8,4.1
		c-0.3,1.4-0.6,2.8-1,4.1c-0.4,1.4-1,2.7-1.8,3.8c-0.8,1.2-1.8,2.3-2.9,3.2c-1.1,0.9-2.3,1.8-3.8,2.3l-0.5-0.4
		c0.3-3.1,1.1-5.6,1.9-8c0.4-1.2,1-2.3,1.7-3.4c0.7-1.1,1.4-2.2,1.9-3.3c0.5-1.2,1-2.4,1.5-3.6c0.5-1.2,0.9-2.4,1.3-3.7
		c0.8-2.5,1.5-5.1,2-7.7L770.5,195.3z"/>
</g>
<g>
	<path class="st0" d="M762.1,195.2c0.9,2.5,1.4,5,1.8,7.6c0.2,1.3,0.3,2.6,0.4,4c0,1.3,0,2.7,0,4c-0.1,1.3-0.1,2.7-0.2,4.1
		c-0.1,1.4-0.4,2.7-1,3.9c-0.6,1.2-1.3,2.4-2.2,3.5c-0.9,1.1-1.9,2.1-3.3,2.8l-0.5-0.3c-0.2-1.5-0.2-2.8-0.1-4.1
		c0.1-1.3,0.2-2.5,0.4-3.7c0.2-1.2,0.5-2.3,1-3.5c0.5-1.1,0.9-2.3,1.2-3.4c0.3-1.2,0.6-2.4,0.8-3.6c0.2-1.2,0.4-2.4,0.6-3.7
		c0.3-2.5,0.5-5,0.6-7.6L762.1,195.2z"/>
</g>
<g>
	<path class="st0" d="M806.3,181.1c-1.3,4.1-3.1,8.1-5.1,12.1c-1,1.9-2.2,3.8-3.4,5.7c-1.2,1.8-2.5,3.6-3.9,5.4
		c-1.4,1.7-2.8,3.5-4.2,5.2c-1.5,1.7-3.2,3.2-5,4.4c-1.9,1.3-3.8,2.4-5.9,3.3c-2.1,0.9-4.2,1.6-6.5,1.9l-0.3-0.5
		c1.4-1.8,3-3.3,4.5-4.9c1.5-1.5,3-3,4.5-4.4c1.5-1.4,3.1-2.8,4.7-4.1c1.6-1.3,3.3-2.6,4.7-4.1c1.5-1.5,2.9-3,4.3-4.6
		c1.4-1.6,2.7-3.2,4-4.9c2.6-3.3,4.9-6.9,7.1-10.7L806.3,181.1z"/>
</g>
<g>
	<path class="st0" d="M326.4,207.9c2.2,3.7,4.5,7.3,7.1,10.7c1.3,1.7,2.6,3.3,4,4.9c1.4,1.6,2.8,3.1,4.3,4.6
		c1.5,1.5,3.1,2.8,4.7,4.1c1.6,1.3,3.2,2.6,4.7,4.1c1.5,1.4,3,2.9,4.5,4.4c1.5,1.5,3,3.1,4.5,4.9l-0.3,0.5c-2.3-0.3-4.5-1-6.5-1.9
		c-2.1-0.9-4-2-5.9-3.3c-1.9-1.3-3.5-2.8-5-4.4c-1.5-1.7-2.8-3.5-4.2-5.2c-1.4-1.7-2.7-3.5-3.9-5.4c-1.2-1.9-2.3-3.8-3.4-5.7
		c-2-3.9-3.8-7.9-5.1-12.1L326.4,207.9z"/>
</g>
<g>
	<path class="st0" d="M379.6,226.5c-0.2,2-0.3,4-0.2,6c0,1,0.1,1.9,0.2,2.9c0.1,1,0.2,1.9,0.3,2.8c0.1,0.9,0.4,1.9,0.7,2.8
		c0.3,0.9,0.4,1.8,0.4,2.7c0,0.9-0.1,1.9-0.2,2.9c-0.2,1-0.4,2.1-0.8,3.3l-0.6,0.2c-2.3-1.3-3.5-3.3-4.3-5.4c-0.4-1-0.5-2.1-0.4-3.2
		c0.1-1.1,0.3-2.2,0.4-3.3c0.1-1.1,0.3-2.1,0.5-3.2c0.2-1.1,0.5-2.1,0.8-3.1c0.7-2,1.5-4,2.6-5.7L379.6,226.5z"/>
</g>
<g>
	<path class="st0" d="M318.4,204.9c2.2,3.7,4.5,7.3,7.1,10.7c1.3,1.7,2.6,3.3,4,4.9c1.4,1.6,2.8,3.1,4.3,4.6
		c1.5,1.5,3.1,2.8,4.7,4.1c1.6,1.3,3.2,2.6,4.7,4.1c1.5,1.4,3,2.9,4.5,4.4c1.5,1.5,3,3.1,4.5,4.9l-0.3,0.5c-2.3-0.3-4.5-1-6.5-1.9
		c-2.1-0.9-4-2-5.9-3.3c-1.9-1.3-3.5-2.8-5-4.4c-1.5-1.7-2.8-3.5-4.2-5.2c-1.4-1.7-2.7-3.5-3.9-5.4c-1.2-1.9-2.3-3.8-3.4-5.7
		c-2-3.9-3.8-7.9-5.1-12.1L318.4,204.9z"/>
</g>
</svg>
